<?xml version="1.0" encoding="utf-8"?>
<!-- Generator: Adobe Illustrator 21.1.0, SVG Export Plug-In . SVG Version: 6.00 Build 0)  -->
<svg version="1.1" xmlns="http://www.w3.org/2000/svg" xmlns:xlink="http://www.w3.org/1999/xlink" x="0px" y="0px"
	 viewBox="0 0 24 24" style="enable-background:new 0 0 24 24;" xml:space="preserve">
<style type="text/css">
	.st0{fill:#4C6BBA;}
	.st1{fill:#EDF3F3;stroke:#EDF3F3;stroke-miterlimit:10;}
	.st2{fill:#EDF3F3;}
</style>
<g id="Livello_2">
	<rect class="st0" width="24" height="24"/>
</g>
<g id="Livello_1">
	<path class="st1" d="M12.1,14.1c-0.1,0-0.2,0-0.3,0C9.7,14.1,8,12.3,8,10.2c0-2.2,1.8-4,4-4c2.2,0,4,1.8,4,4
		C15.9,12.3,14.3,14.1,12.1,14.1z"/>
	<path class="st1" d="M18.7,19.4C17,21,14.6,22,12,22c-2.6,0-5-1-6.7-2.6C5.4,18.4,6,17.5,7,16.8c2.7-1.8,7.2-1.8,9.9,0
		C18,17.5,18.6,18.4,18.7,19.4z"/>
	<g>
		<path class="st2" d="M12,2c5.5,0,10,4.5,10,10c0,5.5-4.5,10-10,10C6.5,22,2,17.5,2,12C2,6.5,6.5,2,12,2 M12,1C5.9,1,1,5.9,1,12
			s4.9,11,11,11s11-4.9,11-11S18.1,1,12,1L12,1z"/>
	</g>
</g>
</svg>
